<svg width="56" height="56" viewBox="0 0 56 56" fill="none" xmlns="http://www.w3.org/2000/svg">
  <!-- Modern house silhouettes icon -->
  <g transform="translate(8, 10)">
    <!-- Left house -->
    <path d="M0 20 L10 8 L20 20 L20 32 L0 32 Z" fill="#1a365d"/>
    <rect x="3" y="12" width="2" height="8" fill="#1a365d"/>
    
    <!-- Center main house -->
    <path d="M15 15 L25 5 L35 15 L35 32 L15 32 Z" fill="#1a365d"/>
    <!-- Window -->
    <rect x="22" y="22" width="6" height="4" fill="white"/>
    <rect x="23" y="23" width="2" height="1" fill="#1a365d"/>
    <rect x="26" y="23" width="2" height="1" fill="#1a365d"/>
    <rect x="23" y="25" width="2" height="1" fill="#1a365d"/>
    <rect x="26" y="25" width="2" height="1" fill="#1a365d"/>
    
    <!-- Right house -->
    <path d="M30 18 L40 10 L50 18 L50 32 L30 32 Z" fill="#1a365d"/>
    <rect x="45" y="13" width="2" height="5" fill="#1a365d"/>
    
    <!-- Curved arrow/swoosh -->
    <path d="M8 28 Q25 18 42 22" stroke="#b8860b" stroke-width="2.5" fill="none" stroke-linecap="round"/>
    <path d="M38 20 L43 22 L38 24 Z" fill="#b8860b"/>
    
    <!-- White overlay house for depth -->
    <path d="M20 18 L28 12 L36 18 L36 32 L20 32 Z" fill="white" opacity="0.95"/>
    <rect x="26" y="24" width="4" height="3" fill="#1a365d"/>
  </g>
</svg>