<svg width="280" height="50" viewBox="0 0 280 50" fill="none" xmlns="http://www.w3.org/2000/svg">
  <!-- House Icon -->
  <g transform="translate(5, 5)">
    <!-- House Base -->
    <rect x="4" y="18" width="24" height="18" fill="#2563eb" rx="1.5"/>
    <!-- Roof -->
    <path d="M1 20 L16 8 L31 20 L28 20 L16 10 L4 20 Z" fill="#1d4ed8"/>
    <!-- Door -->
    <rect x="13" y="26" width="6" height="10" fill="#ffffff" rx="0.5"/>
    <!-- Door Handle -->
    <circle cx="17.5" cy="31" r="0.8" fill="#2563eb"/>
    <!-- Windows -->
    <rect x="7" y="22" width="4.5" height="4.5" fill="#ffffff" rx="0.5"/>
    <rect x="20.5" y="22" width="4.5" height="4.5" fill="#ffffff" rx="0.5"/>
    <!-- Window Frames -->
    <line x1="9.25" y1="22" x2="9.25" y2="26.5" stroke="#2563eb" stroke-width="0.4"/>
    <line x1="7" y1="24.25" x2="11.5" y2="24.25" stroke="#2563eb" stroke-width="0.4"/>
    <line x1="22.75" y1="22" x2="22.75" y2="26.5" stroke="#2563eb" stroke-width="0.4"/>
    <line x1="20.5" y1="24.25" x2="25" y2="24.25" stroke="#2563eb" stroke-width="0.4"/>
    <!-- Chimney -->
    <rect x="22" y="12" width="3" height="9" fill="#6b7280" rx="0.3"/>
  </g>
  
  <!-- Arrow indicating "reverse" direction -->
  <g transform="translate(38, 22)">
    <path d="M0 3 L6 0 L6 1.5 L10 1.5 L10 4.5 L6 4.5 L6 6 Z" fill="#f59e0b"/>
  </g>
  
  <!-- Company Name -->
  <g transform="translate(60, 12)">
    <!-- "Reverse Way Home" in one line -->
    <text x="0" y="18" font-family="'Lora', serif" font-size="20" font-weight="700" fill="#2563eb">Reverse</text>
    <text x="85" y="18" font-family="'Lora', serif" font-size="20" font-weight="700" fill="#f59e0b">Way</text>
    <text x="130" y="18" font-family="'Lora', serif" font-size="20" font-weight="700" fill="#2563eb">Home</text>
    
    <!-- Tagline -->
    <text x="0" y="35" font-family="'Lato', sans-serif" font-size="10" fill="#6b7280">Access Your Home Equity • Stay in Your Home</text>
  </g>
</svg>