<svg width="44" height="44" viewBox="0 0 44 44" fill="none" xmlns="http://www.w3.org/2000/svg">
  <!-- House Icon Only -->
  <g transform="translate(0, 0)">
    <!-- House Base -->
    <rect x="6" y="20" width="32" height="20" fill="#2563eb" rx="2"/>
    <!-- Roof -->
    <path d="M2 22 L22 6 L42 22 L38 22 L22 10 L6 22 Z" fill="#1d4ed8"/>
    <!-- Door -->
    <rect x="18" y="28" width="8" height="12" fill="#ffffff" rx="1"/>
    <!-- Door Handle -->
    <circle cx="24" cy="34" r="1" fill="#2563eb"/>
    <!-- Windows -->
    <rect x="10" y="24" width="6" height="6" fill="#ffffff" rx="1"/>
    <rect x="28" y="24" width="6" height="6" fill="#ffffff" rx="1"/>
    <!-- Window Frames -->
    <line x1="13" y1="24" x2="13" y2="30" stroke="#2563eb" stroke-width="0.5"/>
    <line x1="10" y1="27" x2="16" y2="27" stroke="#2563eb" stroke-width="0.5"/>
    <line x1="31" y1="24" x2="31" y2="30" stroke="#2563eb" stroke-width="0.5"/>
    <line x1="28" y1="27" x2="34" y2="27" stroke="#2563eb" stroke-width="0.5"/>
    <!-- Chimney -->
    <rect x="30" y="12" width="4" height="12" fill="#6b7280" rx="0.5"/>
  </g>
  
  <!-- Arrow indicating "reverse" direction -->
  <g transform="translate(15, 38)">
    <path d="M0 2 L6 0 L6 1 L10 1 L10 3 L6 3 L6 4 Z" fill="#f59e0b"/>
  </g>
</svg>